<svg width="30" height="30" viewBox="0 0 30 30" fill="none" xmlns="http://www.w3.org/2000/svg">
<path d="M2.41113 0.5H27.5889C28.6439 0.500064 29.4999 1.35612 29.5 2.41113V27.5889C29.4999 28.6439 28.6439 29.4999 27.5889 29.5H2.41113C1.35612 29.4999 0.500064 28.6439 0.5 27.5889V2.41113L0.509766 2.21582C0.601191 1.31667 1.31667 0.601191 2.21582 0.509766L2.41113 0.5ZM2.41113 1.90039C2.0996 2.00948 1.91798 2.31623 1.91406 2.34375C1.91308 2.3532 1.9124 2.36729 1.91211 2.37207C1.91168 2.37961 1.91118 2.38614 1.91113 2.3877V2.4209C1.91101 2.43822 1.91027 2.46414 1.91016 2.49707C1.90992 2.56313 1.91039 2.66202 1.91016 2.79297C1.90969 3.05555 1.90867 3.44913 1.9082 3.97363C1.90727 5.02328 1.90621 6.59819 1.90527 8.69727C1.9034 12.8954 1.90227 19.1928 1.90039 27.5889C2.00946 27.9004 2.31622 28.082 2.34375 28.0859C2.3532 28.0869 2.36729 28.0876 2.37207 28.0879C2.37961 28.0883 2.38614 28.0888 2.3877 28.0889H2.4209C2.43822 28.089 2.46414 28.0897 2.49707 28.0898C2.56313 28.0901 2.66202 28.0896 2.79297 28.0898C3.05555 28.0903 3.44913 28.0913 3.97363 28.0918C5.02328 28.0927 6.59819 28.0938 8.69727 28.0947C12.8954 28.0966 19.1928 28.0977 27.5889 28.0996C27.9004 27.9905 28.082 27.6838 28.0859 27.6562C28.0869 27.6468 28.0876 27.6327 28.0879 27.6279C28.0883 27.6204 28.0888 27.6139 28.0889 27.6123V27.5791C28.089 27.5618 28.0897 27.5359 28.0898 27.5029C28.0901 27.4369 28.0896 27.338 28.0898 27.207C28.0903 26.9445 28.0913 26.5509 28.0918 26.0264C28.0927 24.9767 28.0938 23.4018 28.0947 21.3027C28.0966 17.1046 28.0977 10.8072 28.0996 2.41113C27.9905 2.0996 27.6838 1.91798 27.6562 1.91406C27.6468 1.91308 27.6327 1.9124 27.6279 1.91211C27.6204 1.91168 27.6139 1.91118 27.6123 1.91113H27.5791C27.5618 1.91101 27.5359 1.91027 27.5029 1.91016C27.4369 1.90992 27.338 1.91039 27.207 1.91016C26.9445 1.90969 26.5509 1.90867 26.0264 1.9082C24.9767 1.90727 23.4018 1.90621 21.3027 1.90527L2.41113 1.90039ZM20.2314 11.3896C22.3599 11.3897 23.5087 12.0806 24.165 13.1221C24.8546 14.2163 25.0674 15.7948 25.0674 17.7109V25.0635H21.6201V18.5996C21.6201 17.7909 21.6181 16.7413 21.2832 15.8955C21.11 15.4582 20.8394 15.0494 20.416 14.7539C19.9917 14.4578 19.4563 14.3047 18.8066 14.3047C18.1633 14.3047 17.6192 14.4306 17.1709 14.6787C16.7198 14.9285 16.3946 15.2861 16.166 15.7002C15.7217 16.5052 15.6367 17.5373 15.6367 18.4805V25.0635H12.1885V11.7461H15.46V13.7041H16.3213L16.4619 13.4375C16.9761 12.4677 18.2625 11.3896 20.2314 11.3896ZM8.39844 11.7461V25.0635H4.94727V11.7461H8.39844ZM6.6748 4.62891C6.94787 4.62891 7.21841 4.68264 7.4707 4.78711C7.72306 4.89164 7.95236 5.04514 8.14551 5.23828C8.33864 5.43142 8.49215 5.66074 8.59668 5.91309C8.70113 6.16536 8.75488 6.43593 8.75488 6.70898C8.75476 7.85726 7.82031 8.78906 6.6748 8.78906C5.52156 8.78896 4.59171 7.857 4.59473 6.70996V6.70898C4.59473 6.43598 4.64851 6.16533 4.75293 5.91309C4.85742 5.66082 5.01106 5.43138 5.2041 5.23828C5.39722 5.04516 5.62659 4.89164 5.87891 4.78711C6.1312 4.6826 6.40172 4.62893 6.6748 4.62891Z" fill="#E5E5E5" stroke="black"/>
</svg>
