<svg width="173" height="36" viewBox="0 0 173 36" fill="none" xmlns="http://www.w3.org/2000/svg">
<mask id="mask0_0_1" style="mask-type:luminance" maskUnits="userSpaceOnUse" x="0" y="14" width="32" height="8">
<path d="M0 14.4H32V21.7098H0V14.4Z" fill="white"/>
</mask>
<g mask="url(#mask0_0_1)">
<path d="M21.2725 14.4029H26.8463V15.5603H24.6351V21.6493H23.5295V15.5603H21.2725V14.4029ZM12.1055 14.4029V15.5603H7.6383V17.4222H11.2313V18.5796H7.63798V20.4919H12.1055V21.6493H6.53238V15.5603H6.53174V14.4029H12.1055ZM14.8889 14.4061H13.4421L18.6239 21.6522H20.0751L17.4834 18.0317L20.0709 14.4115L18.6239 14.4141L16.7593 17.0197L14.8889 14.4061ZM16.3737 19.5822L15.6489 18.5685L13.4377 21.6576H14.8889L16.3737 19.5822Z" fill="black"/>
<path fill-rule="evenodd" clip-rule="evenodd" d="M6.5712 21.6493L1.38208 14.4H0V21.6461H1.1056V15.9487L5.1824 21.6493H6.5712Z" fill="black"/>
<path d="M27.095 21.6051C27.0565 21.6057 27.0183 21.5977 26.9826 21.5814C26.9469 21.5651 26.9145 21.541 26.8873 21.5104C26.8595 21.4809 26.8375 21.4452 26.8228 21.4056C26.8081 21.366 26.8009 21.3233 26.8018 21.2804C26.8011 21.2379 26.8084 21.1958 26.8231 21.1567C26.8378 21.1177 26.8597 21.0825 26.8873 21.0536C26.9145 21.023 26.9469 20.9988 26.9826 20.9826C27.0183 20.9663 27.0565 20.9582 27.095 20.9589C27.1728 20.9589 27.2407 20.9904 27.2985 21.0536C27.3457 21.1021 27.3763 21.1677 27.385 21.239C27.3937 21.3103 27.3798 21.3828 27.3458 21.4438C27.3196 21.4925 27.2827 21.5329 27.2386 21.5612C27.1951 21.5904 27.1456 21.6056 27.095 21.6051ZM28.982 18.5523H29.4716V20.6759C29.4707 20.8708 29.4336 21.0382 29.3602 21.1781C29.2862 21.3183 29.1833 21.426 29.0514 21.5014C28.92 21.5763 28.767 21.6138 28.5922 21.6141C28.4331 21.6138 28.2898 21.582 28.1625 21.5187C28.0394 21.4595 27.9342 21.3615 27.8598 21.2364C27.7851 21.1116 27.7479 20.9564 27.7481 20.7706H28.239C28.2398 20.8522 28.2559 20.9225 28.2873 20.9816C28.3186 21.0396 28.3638 21.0866 28.4178 21.1169C28.4739 21.1481 28.5384 21.1638 28.6111 21.1641C28.6901 21.1643 28.7569 21.1458 28.8118 21.1086C28.8677 21.0697 28.9116 21.0122 28.9375 20.9441C28.9663 20.8719 28.981 20.7825 28.9817 20.6759L28.982 18.5523ZM31.4876 19.3828C31.4834 19.3227 31.4673 19.2645 31.4403 19.2124C31.4133 19.1604 31.3762 19.1158 31.3318 19.0822C31.2396 19.0102 31.1204 18.9742 30.9743 18.9742C30.8717 18.9744 30.7836 18.9916 30.71 19.0257C30.6364 19.0605 30.5799 19.1073 30.5404 19.1661C30.502 19.2245 30.4812 19.2951 30.4809 19.3677C30.4809 19.431 30.4941 19.4856 30.5206 19.5315C30.5466 19.5783 30.5822 19.6173 30.6274 19.6485C30.6724 19.6809 30.7225 19.7078 30.7775 19.7291C30.833 19.7507 30.8884 19.769 30.9439 19.7838L31.199 19.8544C31.302 19.8808 31.4012 19.9168 31.4966 19.9624C31.5919 20.0075 31.6776 20.0645 31.7535 20.1334C31.829 20.2023 31.889 20.2853 31.9334 20.3825C31.9777 20.4797 31.9999 20.5937 31.9999 20.7245C32.0001 20.9016 31.9594 21.0573 31.8777 21.1914C31.7964 21.3251 31.6785 21.4298 31.5241 21.5054C31.3707 21.5805 31.1847 21.6182 30.966 21.6184C30.7548 21.6184 30.5705 21.5817 30.4156 21.5086C30.2693 21.4445 30.1425 21.3341 30.0508 21.1907C29.9633 21.051 29.9161 20.8811 29.909 20.681H30.3948C30.4012 20.7854 30.4313 20.8725 30.4822 20.943C30.534 21.0126 30.6012 21.0647 30.6838 21.0993C30.767 21.1336 30.8598 21.1508 30.9622 21.1508C31.0695 21.1508 31.164 21.1328 31.2457 21.0968C31.3265 21.0612 31.3899 21.0112 31.4358 20.9466C31.4819 20.8828 31.5068 20.8028 31.5062 20.7206C31.5079 20.6489 31.4857 20.579 31.4441 20.5247C31.3961 20.4681 31.3378 20.4239 31.2732 20.3951C31.1901 20.3566 31.1045 20.3253 31.0172 20.3015L30.7068 20.2133C30.4828 20.1492 30.3057 20.052 30.1756 19.9217C30.0459 19.7916 29.981 19.6184 29.981 19.4019C29.981 19.2243 30.0248 19.0685 30.1122 18.9346C30.1993 18.8007 30.3181 18.6969 30.4687 18.6232C30.6202 18.5486 30.791 18.5114 30.981 18.5116C31.1741 18.5114 31.3437 18.5486 31.4898 18.6232C31.636 18.6969 31.7505 18.7995 31.8335 18.931C31.9169 19.0623 31.9599 19.2129 31.9625 19.3828H31.4876Z" fill="black"/>
</g>
<path d="M63 7.20001C58.7333 7.20001 56.0667 9.59929 55 14.3979C56.6 11.9986 58.4667 11.0988 60.6 11.6986C61.8173 12.0406 62.687 13.0342 63.6502 14.1336C65.2189 15.9243 67.0346 17.9968 71.0003 17.9968C75.267 17.9968 77.9335 15.5974 79 10.7986C77.4 13.1979 75.5333 14.0979 73.4 13.4986C72.183 13.1562 71.3133 12.163 70.3501 11.0632C68.7814 9.27289 66.9654 7.20001 63 7.20001ZM55 17.9968C50.7333 17.9968 48.0667 20.3962 47 25.195C48.6 22.7955 50.4667 21.8957 52.6 22.4957C53.817 22.8384 54.687 23.8313 55.6502 24.9304C57.2186 26.721 59.0346 28.7943 63 28.7943C67.2667 28.7943 69.9333 26.3949 71 21.5961C69.4 23.9953 67.5333 24.8951 65.4 24.2953C64.183 23.9533 63.313 22.9597 62.3498 21.8607C60.7811 20.07 58.9658 17.9968 55 17.9968Z" fill="#06B6D4"/>
<g clip-path="url(#clip0_0_1)">
<path d="M123.779 14.7373C124.179 13.4996 124.279 12.2623 124.179 11.0246C124.079 9.78731 123.679 8.54963 123.179 7.42463C122.279 5.73731 120.979 4.38731 119.479 3.59963C117.879 2.81231 116.179 2.58731 114.479 3.03731C113.679 2.13731 112.779 1.34963 111.779 0.787314C110.779 0.224994 109.579 -0.000366211 108.479 -0.000366211C106.779 -0.000366211 105.079 0.562314 103.679 1.68731C102.301 2.79007 101.282 4.37083 100.779 6.18731C99.5793 6.52463 98.5793 7.08731 97.5793 7.76195C96.6794 8.54963 95.9793 9.56195 95.3793 10.5746C94.4794 12.2623 94.1793 14.1746 94.3793 16.0873C94.5801 17.9957 95.2757 19.7955 96.3793 21.2623C95.9793 22.4996 95.8794 23.737 95.9793 24.9746C96.0791 26.2123 96.4794 27.4496 96.9793 28.5746C97.8794 30.2623 99.1793 31.6123 100.679 32.3996C102.279 33.1873 103.979 33.4123 105.679 32.9623C106.479 33.8623 107.379 34.6496 108.379 35.2123C109.379 35.775 110.579 35.9996 111.679 35.9996C113.379 35.9996 115.079 35.4373 116.479 34.3123C117.879 33.1873 118.879 31.6123 119.379 29.8123C120.479 29.587 121.579 29.0246 122.479 28.237C123.379 27.4496 124.179 26.5496 124.679 25.4246C125.579 23.7373 125.879 21.8246 125.679 19.9123C125.479 17.9996 124.879 16.1996 123.779 14.7373ZM111.779 33.6373C110.179 33.6373 108.979 33.0746 107.879 32.062C107.879 32.062 107.979 31.9496 108.079 31.9496L114.479 27.7873C114.679 27.6746 114.779 27.562 114.879 27.3373C114.979 27.112 114.979 26.9996 114.979 26.7746V16.6496L117.679 18.4496V26.7746C117.779 30.7123 114.979 33.6373 111.779 33.6373ZM98.8794 27.4496C98.1793 26.0996 97.8794 24.5246 98.1793 22.9496C98.1793 22.9496 98.2794 23.062 98.3793 23.062L104.779 27.2246C104.979 27.3373 105.079 27.3373 105.279 27.3373C105.479 27.3373 105.679 27.3373 105.779 27.2246L113.579 22.1623V25.6496L107.079 29.9246C105.679 30.8246 104.079 31.0496 102.579 30.5996C100.979 30.1496 99.6794 29.0246 98.8794 27.4496ZM97.1793 11.8123C97.8794 10.4623 98.9793 9.44963 100.279 8.88731V17.4373C100.279 17.6623 100.279 17.8873 100.379 17.9996C100.479 18.2246 100.579 18.3373 100.779 18.4496L108.579 23.512L105.879 25.312L99.4794 21.1496C98.0794 20.2496 97.0794 18.7873 96.6794 17.0996C96.2794 15.412 96.3793 13.3873 97.1793 11.8123ZM119.279 17.5496L111.479 12.4873L114.179 10.6873L120.579 14.8496C121.579 15.5246 122.379 16.4246 122.879 17.5496C123.38 18.6746 123.679 19.9123 123.579 21.2623C123.479 22.4996 123.079 23.737 122.379 24.7496C121.679 25.7623 120.779 26.5496 119.679 26.9996V18.4496C119.679 18.2246 119.679 17.9996 119.579 17.8873C119.579 17.8873 119.479 17.6623 119.279 17.5496ZM121.979 13.0496C121.979 13.0496 121.879 12.9373 121.779 12.9373L115.379 8.77463C115.179 8.66231 115.079 8.66231 114.879 8.66231C114.679 8.66231 114.479 8.66231 114.379 8.77463L106.579 13.8373V10.3496L113.079 6.07463C114.079 5.39963 115.179 5.17463 116.379 5.17463C117.479 5.17463 118.579 5.62463 119.579 6.41195C120.479 7.19963 121.279 8.21195 121.679 9.33695C122.079 10.462 122.179 11.8123 121.979 13.0496ZM105.179 19.3496L102.479 17.5496V9.11195C102.479 7.87463 102.779 6.52463 103.379 5.51195C103.979 4.38731 104.879 3.59963 105.879 3.03731C106.879 2.47463 108.079 2.24963 109.179 2.47463C110.279 2.58731 111.379 3.14963 112.279 3.93731C112.279 3.93731 112.179 4.04963 112.079 4.04963L105.679 8.21195C105.479 8.32463 105.379 8.43695 105.279 8.66195C105.18 8.88695 105.179 8.99963 105.179 9.22463V19.3496ZM106.579 15.7496L110.079 13.4996L113.579 15.7496V20.2496L110.079 22.4996L106.579 20.2496V15.7496Z" fill="#193718"/>
</g>
<g clip-path="url(#clip1_0_1)">
<path d="M172.511 21.5648C172.325 20.929 171.837 20.4866 171.207 20.3804C170.91 20.33 170.57 20.3516 170.167 20.4452C169.465 20.6086 168.944 20.6709 168.564 20.6828C169.999 17.9504 171.165 14.8342 171.837 11.9013C172.923 7.15832 172.342 4.9976 171.664 4.0202C169.87 1.43324 167.251 0.0436447 164.093 0.00116472C162.408 -0.0222353 160.928 0.353245 160.157 0.623245C159.438 0.479965 158.666 0.400045 157.855 0.385645C156.336 0.358285 154.993 0.731965 153.846 1.49984C152.923 1.14792 151.976 0.879821 151.015 0.698125C148.246 0.185125 146.015 0.584725 144.382 1.8854C142.406 3.4604 141.49 6.19641 141.659 10.0178C141.713 11.231 142.315 14.9228 143.262 18.4238C143.807 20.4362 144.387 22.1073 144.988 23.3911C145.839 25.212 146.751 26.2837 147.774 26.6689C148.347 26.8845 149.389 27.0354 150.485 26.0058C150.624 26.1955 150.809 26.3838 151.055 26.5591C151.367 26.7816 151.749 26.963 152.13 27.0703C153.505 27.4584 154.793 27.3612 155.891 26.8179C155.898 27.0382 155.903 27.2488 155.907 27.4306C155.914 27.7258 155.922 28.0149 155.931 28.2853C155.996 30.1141 156.107 31.5357 156.434 32.5304C156.451 32.5851 156.475 32.6686 156.501 32.7572C156.664 33.3202 156.937 34.2627 157.63 35.0007C158.349 35.7661 159.217 36.0001 160.013 36.0001C160.412 36.0001 160.793 35.941 161.126 35.8604C162.317 35.5724 163.668 35.1343 164.646 33.5636C165.571 32.0786 166.02 29.8423 166.101 26.3182L166.131 26.0328L166.15 25.8466L166.368 25.8682L166.424 25.8726C167.636 25.9348 169.119 25.6447 170.029 25.1677C170.748 24.7911 173.054 23.4181 172.511 21.5648Z" fill="black"/>
<path d="M170.438 21.9251C166.834 22.7639 166.586 21.3872 166.586 21.3872C170.391 15.0167 171.982 6.93035 170.61 4.95106C166.864 -0.447495 160.38 2.10598 160.272 2.17186L160.237 2.17906C159.525 2.01238 158.728 1.91266 157.833 1.89646C156.202 1.86622 154.964 2.37886 154.026 3.18166C154.026 3.18166 142.459 -2.19314 142.998 9.94246C143.112 12.5237 146.278 29.4768 150.054 24.3565C151.434 22.4838 152.767 20.9005 152.767 20.9005C153.43 21.3973 154.222 21.65 155.054 21.5593L155.118 21.4974C155.098 21.7299 155.107 21.9571 155.144 22.2264C154.171 23.4525 154.457 23.6678 152.513 24.1193C150.545 24.5768 151.701 25.3911 152.456 25.6043C153.371 25.8624 155.487 26.2278 156.917 23.9691L156.86 24.2269C157.241 24.5714 157.509 26.4668 157.464 28.1855C157.419 29.9037 157.389 31.0835 157.69 32.0051C157.99 32.9267 158.289 35.0003 160.846 34.3825C162.981 33.8659 164.089 32.5278 164.243 30.2954C164.352 28.7089 164.599 28.9433 164.615 27.5245L164.813 26.8531C165.042 24.7017 164.849 24.0077 166.165 24.3306L166.485 24.3623C167.454 24.4119 168.721 24.1866 169.465 23.7963C171.067 22.9575 172.018 21.5571 170.438 21.9251Z" fill="#336791"/>
<path d="M154.703 11.097C154.378 11.0459 154.084 11.0931 153.935 11.2201C153.904 11.2447 153.877 11.2761 153.857 11.3124C153.837 11.3487 153.824 11.3892 153.818 11.4315C153.8 11.5827 153.894 11.7497 153.951 11.8357C154.115 12.0798 154.353 12.2472 154.589 12.2843C154.623 12.2896 154.657 12.2922 154.691 12.2922C155.084 12.2922 155.442 11.9466 155.473 11.6917C155.512 11.3724 155.102 11.1593 154.703 11.097ZM165.463 11.1071C165.432 10.8565 165.038 10.7853 164.663 10.8443C164.288 10.9026 163.926 11.0934 163.956 11.3443C163.98 11.5395 164.293 11.8725 164.662 11.8725C164.694 11.8725 164.725 11.8701 164.757 11.8653C165.003 11.8264 165.185 11.6496 165.271 11.5477C165.402 11.3926 165.478 11.2194 165.463 11.1071Z" fill="white"/>
<path d="M171.638 21.83C171.5 21.3609 171.058 21.2105 170.322 21.3815C168.141 21.8894 167.359 21.5377 167.103 21.3246C168.799 18.4093 170.194 14.8856 170.947 11.5981C171.303 10.0407 171.5 8.59462 171.516 7.41562C171.534 6.12178 171.339 5.17102 170.936 4.59034C169.312 2.24854 166.928 0.992857 164.042 0.957937C162.058 0.933097 160.382 1.50586 160.057 1.66714C159.323 1.46298 158.57 1.35391 157.814 1.34206C156.325 1.3147 155.038 1.71718 153.972 2.53726C152.959 2.11936 151.914 1.81007 150.849 1.6135C148.32 1.15378 146.309 1.5019 144.875 2.6485C143.163 4.0165 142.373 6.46198 142.526 9.9169C142.577 11.0793 143.164 14.6549 144.091 18.0792C145.31 22.5864 146.636 25.1377 148.031 25.6626C148.194 25.7238 148.382 25.767 148.59 25.767C149.099 25.767 149.723 25.5081 150.372 24.6279C151.163 23.5567 151.982 22.5114 152.827 21.4934C153.371 21.8252 153.976 22.0088 154.594 22.0295L154.598 22.0838C154.492 22.2264 154.388 22.3711 154.287 22.518C153.86 23.1293 153.771 23.2567 152.397 23.5757C152.006 23.6667 150.968 23.9079 150.953 24.7291C150.936 25.6259 152.18 26.0028 152.322 26.0424C152.815 26.1821 153.291 26.2508 153.745 26.2508C154.848 26.2508 155.819 25.8419 156.595 25.0502C156.571 28.2477 156.689 31.3985 157.029 32.3582C157.308 33.1441 157.989 35.0651 160.14 35.0647C160.456 35.0647 160.803 35.0233 161.185 34.9308C163.43 34.3879 164.404 33.2687 164.782 30.8016C164.984 29.4825 165.33 26.3336 165.492 24.6445C165.836 24.7655 166.279 24.8209 166.757 24.8209C167.755 24.8209 168.906 24.5815 169.628 24.2035C170.439 23.7787 171.903 22.7358 171.638 21.83ZM166.292 10.4159C166.284 10.9145 166.224 11.3673 166.159 11.84C166.09 12.348 166.018 12.8732 166 13.5111C165.982 14.1321 166.051 14.7773 166.117 15.4015C166.252 16.6622 166.389 17.96 165.856 19.2405C165.767 19.0632 165.689 18.8805 165.619 18.6926C165.553 18.5112 165.409 18.2199 165.21 17.8167C164.434 16.2479 162.618 12.5733 163.548 11.0739C163.825 10.6275 164.528 10.1689 166.292 10.4159ZM164.154 1.9681C166.739 2.03254 168.785 3.1237 170.233 5.21134C171.343 6.81226 170.12 14.0983 166.579 20.3835L166.472 20.2309L166.427 20.1679C167.342 18.4633 167.163 16.7767 167.004 15.2813C166.939 14.6678 166.877 14.0882 166.893 13.5435C166.909 12.9668 166.977 12.4718 167.042 11.9934C167.122 11.4037 167.204 10.7935 167.182 10.0739C167.198 9.99826 167.205 9.90934 167.196 9.80386C167.139 9.11374 166.441 7.04914 165.018 5.18074C164.24 4.1587 163.104 3.01498 161.555 2.2435C162.221 2.08762 163.133 1.94254 164.153 1.9681M149.685 23.9839C148.97 24.9537 148.476 24.7676 148.314 24.7068C147.256 24.3086 146.028 21.7857 144.945 17.7851C144.009 14.3237 143.461 10.8425 143.418 9.8665C143.281 6.7795 143.945 4.62814 145.39 3.47182C147.741 1.59046 151.608 2.71654 153.162 3.28786C153.139 3.3127 153.116 3.33574 153.094 3.36094C150.544 6.26578 150.605 11.2284 150.611 11.5319C150.611 11.6489 150.619 11.8145 150.632 12.0423C150.675 12.8772 150.757 14.4306 150.539 16.1899C150.336 17.8247 150.783 19.4249 151.764 20.5801C151.865 20.6987 151.971 20.8111 152.082 20.9174C151.258 21.9145 150.458 22.9371 149.685 23.9839ZM152.409 19.8831C151.618 18.9518 151.259 17.6569 151.424 16.3292C151.654 14.4709 151.569 12.8523 151.523 11.9829C151.517 11.8613 151.511 11.7543 151.508 11.6705C151.88 11.2979 153.606 10.2546 154.837 10.5725C155.399 10.7179 155.741 11.1495 155.883 11.8915C156.62 15.7341 155.981 17.3354 155.467 18.6224C155.362 18.8877 155.262 19.1383 155.176 19.3975L155.11 19.598C154.943 20.1045 154.787 20.5758 154.69 21.0233C153.849 21.0204 153.031 20.6154 152.409 19.8831ZM152.538 25.0646C152.293 24.9955 152.072 24.8753 151.942 24.7755C152.05 24.7179 152.243 24.6398 152.577 24.5621C154.194 24.1869 154.443 23.922 154.988 23.1411C155.136 22.9255 155.291 22.7156 155.451 22.5119C155.744 22.1425 155.877 22.2051 156.12 22.3185C156.316 22.41 156.508 22.6879 156.585 22.9935C156.622 23.1379 156.663 23.4122 156.528 23.6253C155.39 25.4243 153.73 25.4012 152.538 25.0646ZM160.998 33.9451C159.02 34.4232 158.32 33.2849 157.859 31.9838C157.561 31.1436 157.415 27.3557 157.519 23.1721C157.52 23.118 157.513 23.064 157.499 23.0123C157.487 22.9124 157.469 22.8136 157.444 22.7167C157.29 22.1079 156.913 21.5985 156.462 21.3876C156.282 21.3037 155.953 21.15 155.558 21.2641C155.642 20.8717 155.788 20.4289 155.947 19.9497L156.013 19.7481C156.088 19.5206 156.182 19.2848 156.282 19.0353C156.819 17.6889 157.555 15.8447 156.756 11.6784C156.457 10.1178 155.458 9.35566 153.944 9.53278C153.036 9.63862 152.206 10.0519 151.791 10.2888C151.703 10.3397 151.62 10.3889 151.545 10.4364C151.66 8.86426 152.097 5.92558 153.731 4.06654C154.76 2.89654 156.13 2.31838 157.8 2.3497C161.09 2.41018 163.199 4.31458 164.389 5.90146C165.415 7.2691 165.97 8.64646 166.192 9.38986C164.525 9.19834 163.391 9.5695 162.816 10.4965C161.566 12.5129 163.5 16.4268 164.43 18.3078C164.601 18.6523 164.748 18.9504 164.794 19.0767C165.097 19.9047 165.489 20.4573 165.775 20.8605C165.863 20.984 165.948 21.1043 166.013 21.2087C165.508 21.3732 164.601 21.7523 164.683 23.6491C164.617 24.6006 164.143 29.0563 163.902 30.6302C163.584 32.7096 162.906 33.4843 160.998 33.9458M169.252 23.2898C168.736 23.5602 167.872 23.7632 167.051 23.8068C166.145 23.8547 165.683 23.6919 165.575 23.5922C165.524 22.4103 165.914 22.2869 166.327 22.1558C166.391 22.1357 166.455 22.1155 166.515 22.0914C166.553 22.1264 166.595 22.1609 166.641 22.1947C167.369 22.7372 168.669 22.7959 170.504 22.3686L170.524 22.3639C170.276 22.6253 169.853 22.9755 169.252 23.2898Z" fill="white"/>
</g>
<defs>
<clipPath id="clip0_0_1">
<rect width="32" height="36" fill="white" transform="translate(94)"/>
</clipPath>
<clipPath id="clip1_0_1">
<rect width="32" height="36" fill="white" transform="translate(141)"/>
</clipPath>
</defs>
</svg>
